<svg xmlns="http://www.w3.org/2000/svg" height="800" width="1200" viewBox="-43.179735 -19.062 374.22437 114.372"><path d="M212.0976 5.462c0-3.0158 2.5067-5.462 5.599-5.462h64.5692c3.0923 0 5.599 2.4462 5.599 5.462v65.324c0 3.0168-2.5067 5.462-5.599 5.462h-64.5692c-3.0923 0-5.599-2.4452-5.599-5.462z" fill="#069"/><path d="M0 63.8682h31.62V53.4874H11.4428V13.8815H0zm47.6286 0V29.439H36.1848v34.4292zm-5.7219-39.13c3.9907 0 6.4746-2.644 6.4746-5.95-.0743-3.3774-2.4839-5.947-6.3985-5.947-3.9151 0-6.4746 2.5696-6.4746 5.947 0 3.306 2.4834 5.95 6.3238 5.95h.0744zm11.0354 39.13h11.444V44.641c0-1.029.0744-2.057.377-2.7926.8268-2.055 2.7097-4.1843 5.8713-4.1843 4.1414 0 5.798 3.1584 5.798 7.7838v18.4204h11.4429V44.1264c0-10.5754-5.6464-15.4963-13.1756-15.4963-6.1732 0-8.8839 3.4507-10.3898 5.8012h.0764V29.439h-11.444c.1503 3.2307 0 34.4292 0 34.4292zm51.0772-49.9867H92.5749v49.9867h11.4444V52.706l2.86-3.6006 8.9595 14.7628h14.078l-15.0565-21.372 13.175-14.5406h-13.777s-9.4107 13.0094-10.239 14.5519z" fill-rule="evenodd"/><path d="M160.5209 49.5068c.1503-.8843.3766-2.5807.3766-4.498 0-8.9006-4.518-17.9355-16.4126-17.9355-12.724 0-18.596 10.063-18.596 19.1896 0 11.2886 7.152 18.3389 19.6496 18.3389 4.9692 0 9.561-.7336 13.3259-2.276l-1.5064-7.5577c-3.0863 1.0239-6.2483 1.5353-10.1629 1.5353-5.3453 0-10.0127-2.1935-10.3898-6.87l23.7156.0714zm-23.7901-7.742c.301-2.9383 2.2585-7.2724 7.1521-7.2724 5.1936 0 6.399 4.6285 6.399 7.2724zm52.4138-27.8833v17.3038h-.1503c-1.6566-2.4218-5.1205-4.0376-9.7116-4.0376-8.8093 0-16.5634 7.0502-16.4888 19.0938 0 11.1643 7.002 18.4347 15.735 18.4347 4.743 0 9.26-2.057 11.5186-6.0234h.2264l.4516 5.2154H200.89c-.1508-2.4238-.3025-6.6101-.3025-10.7221V13.8815zm0 34.0502c0 .8803-.0754 1.7626-.2264 2.4962-.6766 3.1583-3.3878 5.361-6.6995 5.361-4.7433 0-7.8302-3.8185-7.8302-9.8408 0-5.6545 2.6356-10.2077 7.905-10.2077 3.5379 0 6.0228 2.4228 6.7008 5.4335.1503.6622.1503 1.3968.1503 2.057z" fill-rule="evenodd"/><path d="M235.065 63.8275V29.3972h-11.444v34.4303zm-5.722-39.1311c3.9907 0 6.4746-2.6439 6.4746-5.948-.0744-3.3784-2.4839-5.9489-6.399-5.9489-3.9146 0-6.474 2.5705-6.474 5.949 0 3.304 2.4833 5.9479 6.3238 5.9479h.0743zm12.0543 39.1311h11.4439V44.6002c0-1.029.0744-2.057.3765-2.7926.8273-2.056 2.7103-4.1854 5.8717-4.1854 4.141 0 5.7976 3.1574 5.7976 7.7859v18.4194h11.443V44.0857c0-10.5755-5.6459-15.4964-13.1751-15.4964-6.1737 0-8.884 3.4508-10.3898 5.8012h.0764v-4.9933h-11.4439c.1502 3.2307 0 34.4303 0 34.4303z" fill="#fff" fill-rule="evenodd"/></svg>