<?xml version="1.0" encoding="iso-8859-1"?>
<!-- Generator: Adobe Illustrator 18.0.0, SVG Export Plug-In . SVG Version: 6.00 Build 0)  -->
<!DOCTYPE svg PUBLIC "-//W3C//DTD SVG 1.1//EN" "http://www.w3.org/Graphics/SVG/1.1/DTD/svg11.dtd">
<svg version="1.1" id="Capa_1" xmlns="http://www.w3.org/2000/svg" xmlns:xlink="http://www.w3.org/1999/xlink" x="0px" y="0px"
	 viewBox="0 0 72.444 72.444" style="enable-background:new 0 0 72.444 72.444;" xml:space="preserve">
<g>
	<g>
		<g>
			<polygon style="fill:#FFFFFF;" points="32.89,50.606 28.641,50.651 28.566,43.369 23.854,43.418 23.929,50.699 19.429,50.746 
				14.5,50.799 14.522,57.69 61.764,57.524 61.741,50.303 51.595,50.41 			"/>
		</g>
		<g>
			<path style="fill:#EED915;" d="M11.909,2.006l0.25,70.438l52.077-0.185L63.986,1.821L11.909,2.006z M61.741,50.303l0.023,7.222
				L14.522,57.69L14.5,50.799l-0.053-14.607L14.342,5.715L61.579,5.55l0.098,27.627L61.741,50.303z"/>
		</g>
		<g>
			<path style="fill:#F0505D;" d="M44.043,30.629c-0.173,0.492-0.257,1.011-0.251,1.558c0.014,1.635,0.861,3.07,2.13,3.917
				c-0.108,0.299-0.171,0.615-0.168,0.948c0.02,1.575,1.31,2.839,2.879,2.821c0.135-0.001,0.261-0.023,0.393-0.043
				c0.66,0.57,1.525,0.917,2.473,0.904c2.062-0.025,3.717-1.716,3.698-3.78c-0.002-0.166-0.021-0.327-0.038-0.486
				c1.128-0.65,1.886-1.873,1.869-3.277c-0.021-2.064-1.711-3.719-3.78-3.696c-0.233-0.003-0.465,0.027-0.684,0.07
				c-0.861-1.332-2.356-2.21-4.062-2.191c-0.148,0-0.286,0.008-0.427,0.024C46.179,27.582,44.614,28.887,44.043,30.629z"/>
		</g>
		<g>
			<polygon style="fill:#EED915;" points="23.854,43.418 28.566,43.369 28.641,50.651 32.89,50.606 32.737,36.034 19.277,36.176 
				19.429,50.746 23.929,50.699 			"/>
		</g>
		<g>
			<path style="fill:#F0505D;" d="M30.254,32.27L29.4,32.273c-1.169,0.006-2.121-0.941-2.124-2.105
				c-0.002-0.584,0.235-1.106,0.61-1.487l-1.987-3.008l-6.622,10.503l13.46-0.142L30.254,32.27z"/>
		</g>
		<g>
			<path style="fill:#FFFFFF;" d="M38.32,11.693l-3.742,0.014c-0.007-1.233-1.005-2.229-2.233-2.225l-9.715,0.035
				c-1.228,0.005-2.221,1.01-2.216,2.237c0.004,0.5,0.172,0.962,0.456,1.334c-1.032,0.146-1.82,1.028-1.814,2.095
				c0.005,1.17,0.954,2.11,2.118,2.107l8.802-0.032c0.984-0.002,1.815-0.684,2.04-1.606l6.319-0.024
				c1.087-0.001,1.966-0.886,1.965-1.973C40.289,12.566,39.406,11.687,38.32,11.693z"/>
		</g>
		<g>
			<path style="fill:#FFFFFF;" d="M27.276,30.168c0.003,1.164,0.955,2.111,2.124,2.105l0.855-0.004l7.941-0.025
				c0.989-0.005,1.813-0.69,2.04-1.606l3.799-0.013l0.009,0.004c0.57-1.742,2.136-3.047,4.033-3.232l-0.001-0.006
				c-0.366-0.439-0.92-0.722-1.536-0.718l-3.737,0.011c-0.004-1.228-1.008-2.221-2.236-2.217l-9.709,0.033
				c-1.232,0.007-2.223,1.004-2.221,2.239c0.004,0.5,0.172,0.961,0.453,1.328c-0.467,0.067-0.886,0.288-1.203,0.612
				C27.511,29.063,27.274,29.584,27.276,30.168z"/>
		</g>
		<g>
			<path style="fill:#20B0A8;" d="M14.342,5.715l0.105,30.477L14.5,50.799l4.929-0.053l-0.152-14.57l6.622-10.503l1.987,3.008
				c0.317-0.324,0.736-0.545,1.203-0.612c-0.281-0.367-0.449-0.828-0.453-1.328c-0.002-1.235,0.989-2.232,2.221-2.239l9.709-0.033
				c1.228-0.004,2.232,0.989,2.236,2.217l3.737-0.011c0.616-0.004,1.17,0.278,1.536,0.718l0.001,0.006
				c0.141-0.017,0.279-0.024,0.427-0.024c1.706-0.019,3.2,0.859,4.062,2.191c0.219-0.043,0.451-0.073,0.684-0.07
				c2.069-0.022,3.76,1.632,3.78,3.696c0.017,1.404-0.741,2.627-1.869,3.277c0.017,0.159,0.035,0.32,0.038,0.486
				c0.019,2.064-1.637,3.755-3.698,3.78c-0.948,0.013-1.813-0.334-2.473-0.904c-0.132,0.02-0.258,0.042-0.393,0.043
				c-1.569,0.018-2.858-1.246-2.879-2.821c-0.003-0.333,0.06-0.649,0.168-0.948c-1.269-0.847-2.117-2.282-2.13-3.917
				c-0.006-0.547,0.078-1.065,0.251-1.558l-0.009-0.004l-3.799,0.013c-0.227,0.916-1.05,1.601-2.04,1.606l-7.941,0.025l2.483,3.765
				l0.153,14.571l18.705-0.195l10.146-0.107l-0.063-17.126L61.579,5.55L14.342,5.715z M40.299,13.656
				c0.001,1.087-0.877,1.972-1.965,1.973l-6.319,0.024c-0.225,0.922-1.055,1.603-2.04,1.606l-8.802,0.032
				c-1.164,0.003-2.112-0.938-2.118-2.107c-0.005-1.066,0.783-1.949,1.814-2.095c-0.284-0.372-0.452-0.834-0.456-1.334
				c-0.005-1.228,0.989-2.233,2.216-2.237l9.715-0.035c1.228-0.004,2.226,0.991,2.233,2.225l3.742-0.014
				C39.406,11.687,40.289,12.566,40.299,13.656z"/>
		</g>
	</g>
	<g>
		<g>
			<g>
				<path style="fill:#231F20;" d="M36.234,14.782L36.234,14.782c-0.32,0.139-0.66,0.21-1.011,0.211l-5.9,0.021
					c-0.42,0.944-1.406,1.603-2.459,1.608l-8.796,0.03c-1.491,0.005-2.708-1.203-2.713-2.694c-0.003-1.049,0.597-2,1.539-2.448
					c-0.118-0.313-0.18-0.644-0.182-0.983c-0.003-1.128,0.663-2.147,1.698-2.596c0.352-0.153,0.726-0.23,1.111-0.232l9.709-0.035
					c1.351-0.004,2.487,0.948,2.764,2.219l3.213-0.012c0.684-0.002,1.328,0.262,1.813,0.744c0.485,0.482,0.753,1.124,0.756,1.809
					C37.78,13.448,37.174,14.374,36.234,14.782z M28.668,13.884c0.073-0.031,0.151-0.049,0.233-0.049l6.319-0.024
					c0.19,0,0.373-0.037,0.544-0.112h0c0.506-0.219,0.831-0.719,0.83-1.271c-0.001-0.368-0.146-0.714-0.407-0.974
					c-0.261-0.26-0.607-0.401-0.976-0.399l-3.741,0.013c-0.327,0.001-0.591-0.262-0.593-0.589c-0.003-0.902-0.74-1.635-1.642-1.631
					l-9.71,0.034c-0.891,0.003-1.635,0.766-1.631,1.643c0.001,0.354,0.116,0.692,0.334,0.979c0.126,0.167,0.155,0.389,0.075,0.581
					c-0.08,0.193-0.255,0.333-0.463,0.36c-0.739,0.105-1.307,0.768-1.305,1.51c0.003,0.841,0.688,1.521,1.528,1.518l8.795-0.031
					c0.687-0.002,1.309-0.499,1.471-1.156C28.374,14.102,28.503,13.955,28.668,13.884z"/>
			</g>
			<g>
				<path style="fill:#231F20;" d="M41.16,29.935c-0.072,0.031-0.15,0.049-0.233,0.049l-3.383,0.013
					c-0.424,0.961-1.377,1.604-2.46,1.607l-8.795,0.03c-0.722,0.004-1.402-0.274-1.914-0.784c-0.513-0.508-0.797-1.186-0.8-1.908
					c-0.004-1.063,0.621-2.007,1.54-2.447c-0.119-0.312-0.18-0.643-0.181-0.984c-0.005-1.556,1.254-2.823,2.808-2.829l9.71-0.034
					c0.753-0.002,1.461,0.288,1.995,0.818c0.393,0.389,0.655,0.873,0.769,1.399l3.21-0.01c0.774-0.004,1.5,0.338,1.992,0.936
					c0.207,0.252,0.17,0.624-0.083,0.832c-0.25,0.203-0.624,0.171-0.831-0.082c-0.265-0.322-0.656-0.507-1.074-0.505l-3.74,0.013
					c-0.157,0-0.308-0.06-0.418-0.172c-0.112-0.11-0.174-0.261-0.175-0.417c-0.001-0.438-0.172-0.848-0.483-1.156
					c-0.31-0.307-0.722-0.476-1.158-0.475l-9.71,0.034c-0.902,0.005-1.634,0.74-1.631,1.643c0.001,0.354,0.117,0.694,0.333,0.979
					c0.126,0.167,0.155,0.388,0.076,0.582c-0.08,0.192-0.254,0.329-0.463,0.36c-0.747,0.107-1.307,0.756-1.304,1.509
					c0.001,0.406,0.162,0.788,0.451,1.075c0.288,0.286,0.67,0.443,1.076,0.441l8.797-0.03c0.698-0.002,1.302-0.479,1.469-1.156
					c0.065-0.265,0.3-0.449,0.572-0.45l3.801-0.015c0.327-0.001,0.591,0.263,0.593,0.589C41.516,29.634,41.37,29.844,41.16,29.935z"
					/>
			</g>
			<g>
				<path style="fill:#231F20;" d="M61.359,71.575c-0.073,0.032-0.152,0.049-0.233,0.05L9.05,71.808
					c-0.326,0.002-0.591-0.263-0.592-0.589L8.208,0.777C8.207,0.451,8.472,0.187,8.796,0.185L60.872,0
					c0.157-0.001,0.306,0.061,0.418,0.172c0.111,0.109,0.174,0.26,0.175,0.417l0.248,70.442c0.002,0.157-0.061,0.308-0.172,0.419
					C61.49,71.504,61.427,71.546,61.359,71.575z M9.636,70.624l50.894-0.179L60.285,1.184L9.392,1.364L9.636,70.624z"/>
			</g>
			<g>
				<path style="fill:#231F20;" d="M58.888,56.836c-0.072,0.031-0.151,0.049-0.233,0.05l-47.241,0.166
					c-0.157,0.001-0.307-0.061-0.419-0.171c-0.111-0.11-0.174-0.261-0.174-0.418L10.638,4.487c0-0.156,0.061-0.308,0.172-0.419
					c0.109-0.111,0.26-0.174,0.417-0.174l47.241-0.166c0.326-0.001,0.591,0.264,0.592,0.59l0.184,51.974
					C59.245,56.536,59.098,56.745,58.888,56.836z M12.001,55.868l46.059-0.162L57.881,4.913L11.822,5.074L12.001,55.868z"/>
			</g>
			<g>
				<path style="fill:#231F20;" d="M30.016,49.92c-0.071,0.031-0.15,0.048-0.229,0.05l-13.463,0.14
					c-0.326,0.004-0.594-0.259-0.597-0.585l-0.152-14.57c-0.003-0.327,0.26-0.592,0.585-0.598l13.462-0.141
					c0.327-0.003,0.594,0.259,0.597,0.585l0.153,14.571c0.001,0.157-0.059,0.308-0.168,0.419
					C30.149,49.847,30.085,49.891,30.016,49.92z M16.902,48.922l12.282-0.128l-0.14-13.39l-12.281,0.128L16.902,48.922z"/>
			</g>
			<g>
				<path style="fill:#231F20;" d="M29.863,35.349c-0.072,0.031-0.149,0.048-0.229,0.05l-13.463,0.141
					c-0.216,0.002-0.417-0.114-0.522-0.304c-0.105-0.188-0.099-0.419,0.017-0.603l6.623-10.506c0.107-0.169,0.293-0.272,0.493-0.275
					c0.201-0.002,0.389,0.098,0.499,0.266l1.986,3.008c0.18,0.271,0.104,0.639-0.168,0.818c-0.275,0.176-0.639,0.104-0.819-0.168
					l-1.481-2.244l-5.556,8.814l11.294-0.118l-1.888-2.86c-0.179-0.273-0.104-0.639,0.168-0.818
					c0.273-0.177,0.639-0.104,0.819,0.168l2.485,3.766c0.118,0.18,0.129,0.411,0.028,0.602
					C30.086,35.204,29.984,35.297,29.863,35.349z"/>
			</g>
			<g>
				<path style="fill:#231F20;" d="M25.767,49.964c-0.071,0.03-0.148,0.048-0.229,0.05l-4.712,0.049
					c-0.326,0.003-0.593-0.259-0.597-0.585l-0.076-7.285c-0.003-0.326,0.26-0.592,0.585-0.597l4.712-0.05
					c0.157-0.001,0.308,0.059,0.42,0.169c0.112,0.109,0.176,0.259,0.178,0.416l0.077,7.285
					C26.125,49.66,25.978,49.872,25.767,49.964z M21.404,48.874l3.531-0.036l-0.063-6.104l-3.531,0.037L21.404,48.874z"/>
			</g>
			<g>
				<path style="fill:#231F20;" d="M58.863,49.618c-0.07,0.03-0.147,0.048-0.229,0.05l-47.24,0.493
					c-0.326,0.003-0.593-0.259-0.597-0.585c-0.003-0.326,0.26-0.592,0.585-0.597l47.24-0.494c0.327-0.003,0.594,0.259,0.598,0.585
					C59.222,49.315,59.074,49.527,58.863,49.618z"/>
			</g>
		</g>
		<g>
			<path style="fill:#231F20;" d="M48.72,49.723c-0.07,0.031-0.147,0.048-0.229,0.05c-0.327,0.003-0.594-0.259-0.597-0.585
				l-0.097-9.253c-0.003-0.326,0.261-0.593,0.585-0.597c0.327-0.004,0.594,0.258,0.597,0.585l0.098,9.253
				C49.079,49.421,48.931,49.632,48.72,49.723z"/>
		</g>
		<g>
			<path style="fill:#231F20;" d="M50.069,39.739C50.068,39.739,50.068,39.739,50.069,39.739c-0.531,0.229-1.095,0.351-1.678,0.356
				c-0.956,0.01-1.886-0.299-2.649-0.874c-0.074,0.008-0.143,0.013-0.213,0.013c-0.917,0.011-1.787-0.339-2.443-0.982
				c-0.656-0.643-1.024-1.504-1.033-2.422c-0.002-0.239,0.022-0.479,0.074-0.722c-1.267-0.999-2.021-2.521-2.039-4.15
				c-0.022-2.159,1.244-4.11,3.225-4.97c0.656-0.284,1.354-0.433,2.074-0.44c1.722-0.018,3.316,0.778,4.339,2.146
				c0.139-0.015,0.274-0.023,0.408-0.024c1.155-0.013,2.248,0.427,3.074,1.236c0.827,0.809,1.29,1.892,1.301,3.05
				c0.015,1.428-0.681,2.769-1.838,3.584c0.003,0.058,0.006,0.116,0.006,0.175C52.695,37.466,51.671,39.044,50.069,39.739z
				 M43.783,27.074c-1.543,0.67-2.531,2.19-2.513,3.874c0.014,1.383,0.712,2.666,1.865,3.433c0.224,0.148,0.319,0.43,0.231,0.685
				c-0.091,0.266-0.135,0.512-0.132,0.751c0.005,0.606,0.247,1.17,0.678,1.592c0.431,0.423,1.001,0.652,1.605,0.646
				c0.087-0.001,0.171-0.016,0.255-0.028c0.17-0.026,0.393,0.016,0.524,0.128c0.582,0.498,1.32,0.769,2.081,0.761
				c0.424-0.004,0.834-0.092,1.22-0.258c0,0,0,0,0-0.001c1.166-0.506,1.91-1.653,1.897-2.925c-0.001-0.138-0.017-0.273-0.034-0.408
				c-0.033-0.238,0.082-0.473,0.29-0.592c0.984-0.568,1.588-1.626,1.576-2.76c-0.009-0.842-0.345-1.629-0.946-2.218
				c-0.601-0.589-1.396-0.907-2.236-0.898c-0.184,0.001-0.374,0.021-0.584,0.061c-0.236,0.046-0.477-0.058-0.607-0.261
				c-0.783-1.219-2.111-1.938-3.554-1.923C44.838,26.737,44.295,26.853,43.783,27.074z"/>
		</g>
	</g>
</g>
<g>
</g>
<g>
</g>
<g>
</g>
<g>
</g>
<g>
</g>
<g>
</g>
<g>
</g>
<g>
</g>
<g>
</g>
<g>
</g>
<g>
</g>
<g>
</g>
<g>
</g>
<g>
</g>
<g>
</g>
</svg>
